# xmcd
#
# Track frame offsets:
# 150
# 18435
# 57835
# 84309
# 107605
#
# Disc length: 1743 seconds
#
#
# Revision: 0
# Processed by: cddbd v1.5.2PL0 Copyright (c) Steve Scherf et al.
# Submitted via: Nero 7, 11, 10, 0 
#
DISCID=3006cd05
DTITLE=Soulshine - Blues, Rock And More
DYEAR=2003
DGENRE=Blues
TTITLE0=Before The Bullets Fly
TTITLE1=I Can't Quit You Baby
TTITLE2=Let Me Know
TTITLE3=The Sensitive Kind
TTITLE4=Talk To Me
EXTD=
EXTT0=Before The Bullets Fly
EXTT1=I Can't Quit You Baby
EXTT2=Let Me Know
EXTT3=The Sensitive Kind
EXTT4=Talk To Me
PLAYORDER=
